<svg width="410" height="472" viewBox="0 0 410 472" version="1.1" xmlns="http://www.w3.org/2000/svg" xmlns:xlink="http://www.w3.org/1999/xlink">
<title>Frame</title>
<desc>Created using Figma</desc>
<g id="Canvas" transform="translate(-813 -308)">
<clipPath id="clip-0" clip-rule="evenodd">
<path d="M 813.872 308.494L 1222.25 308.494L 1222.25 779.085L 813.872 779.085L 813.872 308.494Z" fill="#FFFFFF"/>
</clipPath>
<g id="Frame" clip-path="url(#clip-0)">
<path d="M 813.872 308.494L 1222.25 308.494L 1222.25 779.085L 813.872 779.085L 813.872 308.494Z" fill="#FFFFFF"/>
<g id="Rectangle 2">
<use xlink:href="#path0_fill" transform="translate(828.738 325.113)" fill="#2D9CDB"/>
</g>
<g id="der K&#195;&#182;nig">
<use xlink:href="#path1_fill" transform="translate(924.249 349.827)"/>
<use xlink:href="#path2_fill" transform="translate(924.249 349.827)"/>
<use xlink:href="#path3_fill" transform="translate(924.249 349.827)"/>
<use xlink:href="#path4_fill" transform="translate(924.249 349.827)"/>
<use xlink:href="#path5_fill" transform="translate(924.249 349.827)"/>
<use xlink:href="#path6_fill" transform="translate(924.249 349.827)"/>
<use xlink:href="#path7_fill" transform="translate(924.249 349.827)"/>
<use xlink:href="#path8_fill" transform="translate(924.249 349.827)"/>
</g>
<g id="king">
<use xlink:href="#path9_fill" transform="translate(986.813 468.901)"/>
<use xlink:href="#path10_fill" transform="translate(986.813 468.901)"/>
<use xlink:href="#path11_fill" transform="translate(986.813 468.901)"/>
<use xlink:href="#path12_fill" transform="translate(986.813 468.901)"/>
</g>
<clipPath id="clip-1" clip-rule="evenodd">
<path d="M 828.738 689.074L 1208.26 689.074L 1208.26 762.466L 828.738 762.466L 828.738 689.074Z" fill="#FFFFFF"/>
</clipPath>
<g id="Frame" clip-path="url(#clip-1)">
<g id="Rectangle">
<use xlink:href="#path13_fill" transform="translate(832 689)" fill="#FF3B3B"/>
</g>
<g id="Repeat">
<use xlink:href="#path14_fill" transform="translate(842 713)"/>
<use xlink:href="#path15_fill" transform="translate(842 713)"/>
<use xlink:href="#path16_fill" transform="translate(842 713)"/>
<use xlink:href="#path17_fill" transform="translate(842 713)"/>
<use xlink:href="#path18_fill" transform="translate(842 713)"/>
<use xlink:href="#path19_fill" transform="translate(842 713)"/>
</g>
<g id="Rectangle">
<use xlink:href="#path20_fill" transform="translate(955.782 689.074)" fill="#538AF5"/>
</g>
<g id="Know">
<use xlink:href="#path21_fill" transform="translate(982 714)"/>
<use xlink:href="#path22_fill" transform="translate(982 714)"/>
<use xlink:href="#path23_fill" transform="translate(982 714)"/>
<use xlink:href="#path24_fill" transform="translate(982 714)"/>
</g>
<g id="Rectangle">
<use xlink:href="#path25_fill" transform="translate(1091 689)" fill="#0AD106"/>
</g>
<g id="Easy">
<use xlink:href="#path26_fill" transform="translate(1113 713)"/>
<use xlink:href="#path27_fill" transform="translate(1113 713)"/>
<use xlink:href="#path28_fill" transform="translate(1113 713)"/>
<use xlink:href="#path29_fill" transform="translate(1113 713)"/>
</g>
</g>
<g id="Rectangle">
<mask id="mask0_outline_ins">
<use xlink:href="#path30_fill" fill="white" transform="translate(828.738 325.113)"/>
</mask>
<g mask="url(#mask0_outline_ins)">
<use xlink:href="#path31_stroke_2x" transform="translate(828.738 325.113)"/>
</g>
</g>
</g>
</g>
<defs>
<path id="path0_fill" d="M 0 0L 378.03 0L 378.03 86.8713L 0 86.8713L 0 0Z"/>
<path id="path1_fill" d="M 10.7687 9.50009C 12.972 9.5586 14.7522 10.4435 16.1092 12.1548L 18.4293 0L 24.6235 0L 18.8014 33.7001L 13.2857 33.7001L 13.6359 31.155C 11.8703 33.2174 9.81291 34.2193 7.46365 34.1608C 5.98989 34.1462 4.69852 33.7586 3.58956 32.998C 2.48059 32.2374 1.61968 31.1477 1.00683 29.7289C 0.408567 28.2955 0.0802543 26.7012 0.0218875 24.946C -0.0218875 24.0245 0 23.1322 0.0875501 22.2693L 0.218875 21.282C 0.569076 18.8539 1.24029 16.7184 2.23253 14.8754C 3.23935 13.0325 4.46506 11.6649 5.90963 10.7726C 7.3688 9.88038 8.98848 9.45621 10.7687 9.50009ZM 6.28172 22.2693C 6.16499 23.3809 6.12851 24.317 6.17228 25.0776C 6.3182 27.6519 7.35421 28.961 9.28031 29.0049C 11.0167 29.078 12.527 28.2589 13.811 26.5476L 15.4964 17.1133C 14.9273 15.5483 13.7891 14.7292 12.0819 14.656C 10.579 14.6121 9.32409 15.1972 8.31726 16.4112C 7.32503 17.6106 6.64651 19.5633 6.28172 22.2693Z"/>
<path id="path2_fill" d="M 34.9982 34.1389C 32.9261 34.1243 31.0876 33.6196 29.4825 32.625C 27.892 31.6158 26.7028 30.2409 25.9148 28.5003C 25.1269 26.7451 24.8205 24.8143 24.9956 22.7081L 25.0612 21.8305C 25.2801 19.5194 25.9513 17.3985 27.0749 15.4678C 28.1984 13.5371 29.643 12.0525 31.4086 11.014C 33.1742 9.96083 35.1295 9.46352 37.2745 9.52203C 40.3241 9.58054 42.6296 10.7068 44.1909 12.9008C 45.7668 15.0802 46.3651 17.8447 45.9857 21.1942L 45.6355 23.8928L 31.1241 23.8928C 31.0657 25.4286 31.4378 26.6573 32.2403 27.5788C 33.0429 28.5003 34.1373 28.9756 35.5235 29.0049C 37.7706 29.0634 39.7405 28.1931 41.4331 26.394L 44.2566 29.9044C 43.3665 31.2501 42.0824 32.3032 40.4044 33.0638C 38.7263 33.8098 36.9243 34.1681 34.9982 34.1389ZM 36.968 14.6341C 35.8299 14.6048 34.8158 14.9632 33.9257 15.7092C 33.0502 16.4551 32.2622 17.7496 31.5618 19.5926L 40.0542 19.5926L 40.1855 19.0221C 40.2731 18.437 40.2804 17.8812 40.2074 17.3547C 40.0615 16.5063 39.704 15.8481 39.1349 15.3801C 38.5658 14.8974 37.8435 14.6487 36.968 14.6341Z"/>
<path id="path3_fill" d="M 63.6927 15.9066C 62.8464 15.7603 62.1533 15.6872 61.6134 15.6872C 59.4101 15.6287 57.6664 16.4551 56.3823 18.1665L 53.6463 33.7001L 47.4741 33.7001L 51.5889 9.96083L 57.3891 9.93889L 56.82 12.835C 58.3084 10.5971 60.1469 9.47815 62.3357 9.47815C 62.9485 9.47815 63.6635 9.58054 64.4807 9.78531L 63.6927 15.9066Z"/>
<path id="path4_fill" d="M 87.1999 20.9529L 82.9975 24.8582L 81.4654 33.7001L 75.0524 33.7001L 80.5899 1.75521L 87.0029 1.75521L 84.5515 15.8408L 87.8128 12.1548L 97.3995 1.75521L 105.761 1.75521L 91.9933 16.2796L 100.201 33.7001L 92.8907 33.7001L 87.1999 20.9529Z"/>
<path id="path5_fill" d="M 115.435 9.52203C 117.521 9.55128 119.316 10.0925 120.819 11.1456C 122.337 12.1841 123.446 13.6248 124.146 15.4678C 124.861 17.2962 125.116 19.3293 124.912 21.5672C 124.577 25.3409 123.263 28.3979 120.972 30.7382C 118.696 33.0638 115.88 34.1974 112.524 34.1389C 110.466 34.1096 108.686 33.5831 107.183 32.5592C 105.68 31.5207 104.571 30.0873 103.856 28.2589C 103.141 26.4306 102.886 24.4121 103.09 22.2034C 103.47 18.2835 104.798 15.168 107.074 12.8569C 109.35 10.5459 112.137 9.43427 115.435 9.52203ZM 109.197 24.4633C 109.226 25.8674 109.554 26.9791 110.182 27.7982C 110.809 28.6027 111.692 29.0195 112.83 29.0488C 114.727 29.1073 116.215 28.237 117.295 26.4379C 118.375 24.6242 118.878 22.2473 118.806 19.3073C 118.747 17.9032 118.404 16.7842 117.777 15.9505C 117.164 15.1021 116.281 14.6633 115.128 14.6341C 113.29 14.5756 111.816 15.4459 110.707 17.245C 109.613 19.0294 109.109 21.4355 109.197 24.4633ZM 108.562 3.81759C 108.533 3.057 108.796 2.39879 109.35 1.84297C 109.905 1.27253 110.598 0.97268 111.429 0.943427C 112.261 0.914173 112.976 1.17746 113.574 1.73327C 114.173 2.27446 114.472 2.92535 114.472 3.68595C 114.501 4.46117 114.231 5.12668 113.662 5.6825C 113.107 6.22369 112.414 6.50891 111.583 6.53817C 110.809 6.56742 110.116 6.32608 109.503 5.81414C 108.905 5.28758 108.591 4.62206 108.562 3.81759ZM 118.915 3.81759C 118.886 3.057 119.148 2.39879 119.703 1.84297C 120.257 1.27253 120.951 0.97268 121.782 0.943427C 122.599 0.914173 123.3 1.17014 123.883 1.71133C 124.482 2.2379 124.795 2.8961 124.825 3.68595C 124.825 4.49042 124.547 5.16325 123.993 5.70444C 123.453 6.24563 122.774 6.53085 121.957 6.56011C 121.155 6.58936 120.447 6.34071 119.834 5.81414C 119.221 5.28758 118.915 4.62206 118.915 3.81759Z"/>
<path id="path6_fill" d="M 136.469 9.93889L 135.943 12.7472C 137.84 10.5386 140.139 9.46352 142.838 9.52203C 145.071 9.56591 146.719 10.385 147.785 11.9793C 148.85 13.5736 149.236 15.7823 148.945 18.6053L 146.449 33.7001L 140.277 33.7001L 142.816 18.5394C 142.889 17.969 142.904 17.4497 142.86 16.9817C 142.67 15.4898 141.736 14.7218 140.058 14.678C 138.439 14.6195 136.987 15.3727 135.703 16.9378L 132.748 33.7001L 126.576 33.7001L 130.69 9.96083L 136.469 9.93889Z"/>
<path id="path7_fill" d="M 157.831 33.7001L 151.615 33.7001L 155.73 9.96083L 161.946 9.96083L 157.831 33.7001ZM 156.452 3.92729C 156.423 2.94729 156.744 2.13551 157.415 1.49193C 158.086 0.848353 158.896 0.526564 159.845 0.526564C 160.779 0.49731 161.588 0.782532 162.274 1.38223C 162.96 1.98193 163.317 2.75715 163.347 3.70789C 163.376 4.61475 163.069 5.40459 162.427 6.07742C 161.8 6.75026 160.976 7.1013 159.954 7.13055C 159.035 7.15981 158.225 6.8819 157.525 6.29683C 156.839 5.71175 156.481 4.92191 156.452 3.92729Z"/>
<path id="path8_fill" d="M 164.266 21.8085C 164.704 18.1372 165.893 15.1607 167.834 12.8789C 169.789 10.5825 172.248 9.45621 175.21 9.50009C 177.734 9.5586 179.616 10.4728 180.857 12.2426L 181.667 9.93889L 187.335 9.96083L 183.461 32.8883C 183.038 36.0477 181.696 38.5489 179.434 40.3918C 177.172 42.2348 174.371 43.127 171.029 43.0685C 169.395 43.0393 167.834 42.6809 166.345 41.9935C 164.857 41.3206 163.631 40.3918 162.668 39.2071L 165.732 35.4334C 167.104 37.1739 168.826 38.0735 170.898 38.132C 172.503 38.1905 173.875 37.7663 175.013 36.8595C 176.151 35.9672 176.924 34.702 177.333 33.0638L 177.683 31.6377C 175.961 33.3637 174.028 34.1974 171.883 34.1389C 169.577 34.1096 167.746 33.254 166.389 31.5719C 165.032 29.8752 164.288 27.6739 164.156 24.9679C 164.113 24.0757 164.149 23.0225 164.266 21.8085ZM 170.329 24.3975C 170.329 25.7724 170.613 26.8767 171.182 27.7104C 171.766 28.5295 172.605 28.961 173.699 29.0049C 175.378 29.0634 176.866 28.3467 178.165 26.8548L 180.003 16.8062C 179.376 15.4312 178.216 14.7145 176.523 14.656C 174.947 14.6121 173.612 15.2484 172.518 16.5648C 171.423 17.8812 170.737 19.6291 170.46 21.8085C 170.358 22.8763 170.314 23.7393 170.329 24.3975Z"/>
<path id="path9_fill" d="M 5.27052 18.1665L 3.23935 20.2903L 3.23935 26.9601L 0 26.9601L 0 0L 3.23935 0L 3.23935 16.3059L 4.97285 14.2172L 10.8737 7.96867L 14.8135 7.96867L 7.44176 15.9022L 15.6715 26.9601L 11.8718 26.9601L 5.27052 18.1665Z"/>
<path id="path10_fill" d="M 21.6774 26.9601L 18.4381 26.9601L 18.4381 7.96867L 21.6774 7.96867L 21.6774 26.9601ZM 18.1754 2.93121C 18.1754 2.40464 18.333 1.95999 18.6482 1.59724C 18.975 1.2345 19.4536 1.05313 20.084 1.05313C 20.7144 1.05313 21.193 1.2345 21.5198 1.59724C 21.8467 1.95999 22.0101 2.40464 22.0101 2.93121C 22.0101 3.45777 21.8467 3.89657 21.5198 4.24762C 21.193 4.59866 20.7144 4.77418 20.084 4.77418C 19.4536 4.77418 18.975 4.59866 18.6482 4.24762C 18.333 3.89657 18.1754 3.45777 18.1754 2.93121Z"/>
<path id="path11_fill" d="M 29.9421 7.96867L 30.0472 10.3558C 31.4947 8.53034 33.3858 7.61762 35.7205 7.61762C 39.7244 7.61762 41.7439 9.88185 41.7789 14.4103L 41.7789 26.9601L 38.5396 26.9601L 38.5396 14.3927C 38.5279 13.0237 38.2127 12.0115 37.594 11.3562C 36.987 10.7009 36.0356 10.3733 34.7399 10.3733C 33.6893 10.3733 32.7671 10.6541 31.9733 11.2158C 31.1795 11.7775 30.5608 12.5147 30.1172 13.4274L 30.1172 26.9601L 26.8779 26.9601L 26.8779 7.96867L 29.9421 7.96867Z"/>
<path id="path12_fill" d="M 45.8938 17.3064C 45.8938 14.3459 46.5767 11.994 47.9425 10.2504C 49.3082 8.49523 51.1176 7.61762 53.3706 7.61762C 55.6819 7.61762 57.4854 8.43672 58.7812 10.0749L 58.9387 7.96867L 61.8979 7.96867L 61.8979 26.5037C 61.8979 28.961 61.1684 30.8976 59.7092 32.3135C 58.2617 33.7293 56.3122 34.4373 53.8608 34.4373C 52.4951 34.4373 51.1585 34.1447 49.851 33.5597C 48.5436 32.9746 47.5456 32.1731 46.8568 31.155L 48.5378 29.2067C 49.9269 30.9269 51.6254 31.7869 53.6332 31.7869C 55.2091 31.7869 56.4348 31.3423 57.3103 30.4529C 58.1975 29.5636 58.6411 28.3116 58.6411 26.6968L 58.6411 25.0644C 57.3453 26.5622 55.5768 27.3111 53.3355 27.3111C 51.1176 27.3111 49.3199 26.416 47.9425 24.6256C 46.5767 22.8353 45.8938 20.3956 45.8938 17.3064ZM 49.1506 17.675C 49.1506 19.8164 49.5884 21.5014 50.4639 22.73C 51.3394 23.947 52.5651 24.5554 54.141 24.5554C 56.1838 24.5554 57.6839 23.6252 58.6411 21.7646L 58.6411 13.0939C 57.6488 11.2802 56.1605 10.3733 54.176 10.3733C 52.6001 10.3733 51.3686 10.9876 50.4814 12.2163C 49.5942 13.4449 49.1506 15.2645 49.1506 17.675Z"/>
<path id="path13_fill" d="M 0 0L 124 0L 124 79L 0 79L 0 0Z"/>
<path id="path14_fill" d="M 9.09846 14.6561L 3.28225 14.6561L 3.28225 24.6128L 0 24.6128L 0 0L 8.19712 0C 10.9862 0 13.129 0.631097 14.6256 1.89329C 16.1335 3.15549 16.8874 4.99243 16.8874 7.40412C 16.8874 8.93679 16.4679 10.2722 15.6289 11.4105C 14.8013 12.5487 13.6449 13.3995 12.1596 13.963L 17.9758 24.4099L 17.9758 24.6128L 14.4725 24.6128L 9.09846 14.6561ZM 3.28225 12.0021L 8.29916 12.0021C 9.92044 12.0021 11.2073 11.5851 12.1596 10.7512C 13.1233 9.91724 13.6052 8.80155 13.6052 7.40412C 13.6052 5.88273 13.146 4.71632 12.2277 3.90491C 11.3206 3.0935 10.0055 2.68216 8.28215 2.67089L 3.28225 2.67089L 3.28225 12.0021Z"/>
<path id="path15_fill" d="M 28.6219 24.9509C 26.1276 24.9509 24.0982 24.1395 22.5336 22.5166C 20.969 20.8826 20.1867 18.7019 20.1867 15.9746L 20.1867 15.3999C 20.1867 13.5855 20.5325 11.9683 21.2241 10.5483C 21.927 9.1171 22.902 8.00141 24.1492 7.20127C 25.4077 6.38986 26.7682 5.98415 28.2307 5.98415C 30.623 5.98415 32.4824 6.76739 33.8089 8.33386C 35.1354 9.90034 35.7986 12.143 35.7986 15.0618L 35.7986 16.3634L 23.3329 16.3634C 23.3782 18.1666 23.9054 19.626 24.9145 20.7417C 25.9349 21.8461 27.2274 22.3983 28.792 22.3983C 29.903 22.3983 30.8441 22.1729 31.615 21.7221C 32.386 21.2714 33.0606 20.6741 33.6388 19.9303L 35.5605 21.4179C 34.0186 23.7732 31.7057 24.9509 28.6219 24.9509ZM 28.2307 8.55362C 26.9609 8.55362 25.8952 9.01567 25.0335 9.93978C 24.1719 10.8526 23.639 12.1373 23.4349 13.794L 32.6524 13.794L 32.6524 13.5573C 32.5617 11.9683 32.1309 10.7399 31.3599 9.87216C 30.589 8.99313 29.5459 8.55362 28.2307 8.55362Z"/>
<path id="path16_fill" d="M 54.9989 15.6704C 54.9989 18.454 54.3583 20.6966 53.0772 22.3983C 51.796 24.1 50.0614 24.9509 47.8732 24.9509C 45.6397 24.9509 43.8824 24.2465 42.6012 22.8378L 42.6012 31.645L 39.455 31.645L 39.455 6.32224L 42.3291 6.32224L 42.4822 8.35077C 43.7633 6.77302 45.5433 5.98415 47.8222 5.98415C 50.033 5.98415 51.779 6.81247 53.0602 8.4691C 54.3527 10.1257 54.9989 12.4304 54.9989 15.383L 54.9989 15.6704ZM 51.8527 15.3154C 51.8527 13.253 51.4106 11.6246 50.5262 10.43C 49.6419 9.23543 48.4288 8.63814 46.8868 8.63814C 44.9821 8.63814 43.5536 9.47773 42.6012 11.1569L 42.6012 19.8965C 43.5422 21.5644 44.9821 22.3983 46.9208 22.3983C 48.4288 22.3983 49.6249 21.8067 50.5092 20.6234C 51.4049 19.4288 51.8527 17.6594 51.8527 15.3154Z"/>
<path id="path17_fill" d="M 66.6483 24.9509C 64.1541 24.9509 62.1246 24.1395 60.56 22.5166C 58.9954 20.8826 58.2131 18.7019 58.2131 15.9746L 58.2131 15.3999C 58.2131 13.5855 58.5589 11.9683 59.2505 10.5483C 59.9535 9.1171 60.9285 8.00141 62.1756 7.20127C 63.4341 6.38986 64.7946 5.98415 66.2572 5.98415C 68.6494 5.98415 70.5088 6.76739 71.8353 8.33386C 73.1618 9.90034 73.8251 12.143 73.8251 15.0618L 73.8251 16.3634L 61.3593 16.3634C 61.4047 18.1666 61.9319 19.626 62.9409 20.7417C 63.9613 21.8461 65.2538 22.3983 66.8184 22.3983C 67.9295 22.3983 68.8705 22.1729 69.6415 21.7221C 70.4124 21.2714 71.087 20.6741 71.6653 19.9303L 73.587 21.4179C 72.0451 23.7732 69.7322 24.9509 66.6483 24.9509ZM 66.2572 8.55362C 64.9874 8.55362 63.9216 9.01567 63.06 9.93978C 62.1983 10.8526 61.6655 12.1373 61.4614 13.794L 70.6789 13.794L 70.6789 13.5573C 70.5882 11.9683 70.1573 10.7399 69.3864 9.87216C 68.6154 8.99313 67.5724 8.55362 66.2572 8.55362Z"/>
<path id="path18_fill" d="M 88.8418 24.6128C 88.6604 24.2522 88.513 23.6098 88.3996 22.6857C 86.9371 24.1958 85.1911 24.9509 83.1616 24.9509C 81.3476 24.9509 79.8567 24.4437 78.6889 23.4295C 77.5325 22.4039 76.9543 21.1079 76.9543 19.5415C 76.9543 17.6369 77.6799 16.1606 79.1311 15.1125C 80.5937 14.0532 82.6458 13.5235 85.2874 13.5235L 88.3486 13.5235L 88.3486 12.0866C 88.3486 10.9935 88.0198 10.1257 87.3622 9.48336C 86.7046 8.82972 85.7353 8.50291 84.4541 8.50291C 83.3317 8.50291 82.3907 8.78465 81.6311 9.34813C 80.8714 9.9116 80.4916 10.5934 80.4916 11.3936L 77.3284 11.3936C 77.3284 10.4807 77.6515 9.60169 78.2978 8.75647C 78.9554 7.89998 79.8397 7.22381 80.9508 6.72795C 82.0732 6.23208 83.3034 5.98415 84.6412 5.98415C 86.7613 5.98415 88.4223 6.51382 89.6241 7.57316C 90.8259 8.62124 91.4494 10.0694 91.4948 11.9176L 91.4948 20.336C 91.4948 22.0151 91.7102 23.3506 92.141 24.3423L 92.141 24.6128L 88.8418 24.6128ZM 83.6208 22.2293C 84.6072 22.2293 85.5425 21.9757 86.4269 21.4686C 87.3112 20.9614 87.9518 20.3022 88.3486 19.4908L 88.3486 15.738L 85.8827 15.738C 82.0279 15.738 80.1005 16.8593 80.1005 19.102C 80.1005 20.0824 80.4293 20.8487 81.0868 21.401C 81.7444 21.9532 82.5891 22.2293 83.6208 22.2293Z"/>
<path id="path19_fill" d="M 100.695 1.89329L 100.695 6.32224L 104.131 6.32224L 104.131 8.73957L 100.695 8.73957L 100.695 20.0824C 100.695 20.8149 100.848 21.3671 101.154 21.739C 101.461 22.0997 101.982 22.28 102.719 22.28C 103.082 22.28 103.581 22.2124 104.216 22.0771L 104.216 24.6128C 103.388 24.8382 102.583 24.9509 101.801 24.9509C 100.395 24.9509 99.3348 24.5283 98.6205 23.683C 97.9062 22.8378 97.5491 21.6376 97.5491 20.0824L 97.5491 8.73957L 94.1988 8.73957L 94.1988 6.32224L 97.5491 6.32224L 97.5491 1.89329L 100.695 1.89329Z"/>
<path id="path20_fill" d="M 0 0L 135.055 0L 135.055 78.969L 0 78.969L 0 0Z"/>
<path id="path21_fill" d="M 6.29239 13.1685L 3.26524 16.2958L 3.26524 24.6128L 0 24.6128L 0 0L 3.26524 0L 3.26524 12.1712L 14.2684 0L 18.2139 0L 8.46922 10.8695L 18.9792 24.6128L 15.0677 24.6128L 6.29239 13.1685Z"/>
<path id="path22_fill" d="M 23.9111 6.32224L 24.0131 8.62124C 25.419 6.86318 27.2557 5.98415 29.5232 5.98415C 33.412 5.98415 35.3735 8.16482 35.4075 12.5261L 35.4075 24.6128L 32.2613 24.6128L 32.2613 12.5092C 32.2499 11.1907 31.9438 10.2159 31.3429 9.58479C 30.7534 8.95369 29.8293 8.63814 28.5709 8.63814C 27.5505 8.63814 26.6548 8.90861 25.8838 9.44955C 25.1129 9.99049 24.512 10.7005 24.0812 11.5795L 24.0812 24.6128L 20.935 24.6128L 20.935 6.32224L 23.9111 6.32224Z"/>
<path id="path23_fill" d="M 39.319 15.2985C 39.319 13.5066 39.6704 11.8951 40.3734 10.4638C 41.0876 9.03258 42.074 7.92816 43.3325 7.15055C 44.6023 6.37295 46.0479 5.98415 47.6691 5.98415C 50.1748 5.98415 52.1985 6.84627 53.7404 8.57052C 55.2937 10.2948 56.0703 12.5881 56.0703 15.4506L 56.0703 15.6704C 56.0703 17.451 55.7245 19.0512 55.0329 20.4712C 54.3527 21.8799 53.372 22.9787 52.0908 23.7676C 50.821 24.5564 49.3584 24.9509 47.7031 24.9509C 45.2089 24.9509 43.1851 24.0887 41.6318 22.3645C 40.0899 20.6403 39.319 18.3582 39.319 15.5182L 39.319 15.2985ZM 42.4822 15.6704C 42.4822 17.6989 42.9527 19.3273 43.8937 20.5557C 44.8461 21.7841 46.1159 22.3983 47.7031 22.3983C 49.3018 22.3983 50.5716 21.7785 51.5126 20.5388C 52.4536 19.2879 52.9241 17.5411 52.9241 15.2985C 52.9241 13.2925 52.4423 11.6697 51.4786 10.43C 50.5262 9.17908 49.2564 8.55362 47.6691 8.55362C 46.1159 8.55362 44.8631 9.16781 43.9107 10.3962C 42.9583 11.6246 42.4822 13.3826 42.4822 15.6704Z"/>
<path id="path24_fill" d="M 76.308 20.3022L 79.8454 6.32224L 82.9916 6.32224L 77.6345 24.6128L 75.0836 24.6128L 70.6109 10.7512L 66.2572 24.6128L 63.7062 24.6128L 58.3662 6.32224L 61.4954 6.32224L 65.1178 20.0148L 69.4034 6.32224L 71.9374 6.32224L 76.308 20.3022Z"/>
<path id="path25_fill" d="M 0 0L 114 0L 114 79L 0 79L 0 0Z"/>
<path id="path26_fill" d="M 13.9963 13.2361L 3.26524 13.2361L 3.26524 21.9588L 15.731 21.9588L 15.731 24.6128L 0 24.6128L 0 0L 15.5609 0L 15.5609 2.67089L 3.26524 2.67089L 3.26524 10.5821L 13.9963 10.5821L 13.9963 13.2361Z"/>
<path id="path27_fill" d="M 30.6627 24.6128C 30.4813 24.2522 30.3339 23.6098 30.2205 22.6857C 28.7579 24.1958 27.0119 24.9509 24.9825 24.9509C 23.1685 24.9509 21.6776 24.4437 20.5098 23.4295C 19.3534 22.4039 18.7751 21.1079 18.7751 19.5415C 18.7751 17.6369 19.5008 16.1606 20.952 15.1125C 22.4145 14.0532 24.4666 13.5235 27.1083 13.5235L 30.1695 13.5235L 30.1695 12.0866C 30.1695 10.9935 29.8407 10.1257 29.1831 9.48336C 28.5255 8.82972 27.5561 8.50291 26.275 8.50291C 25.1526 8.50291 24.2115 8.78465 23.4519 9.34812C 22.6923 9.9116 22.3125 10.5934 22.3125 11.3936L 19.1493 11.3936C 19.1493 10.4807 19.4724 9.60169 20.1187 8.75647C 20.7762 7.89998 21.6606 7.22381 22.7717 6.72795C 23.8941 6.23208 25.1242 5.98415 26.4621 5.98415C 28.5822 5.98415 30.2432 6.51382 31.445 7.57316C 32.6468 8.62124 33.2703 10.0694 33.3157 11.9176L 33.3157 20.336C 33.3157 22.0151 33.5311 23.3506 33.9619 24.3423L 33.9619 24.6128L 30.6627 24.6128ZM 25.4417 22.2293C 26.4281 22.2293 27.3634 21.9757 28.2477 21.4686C 29.1321 20.9614 29.7727 20.3022 30.1695 19.4908L 30.1695 15.738L 27.7035 15.738C 23.8487 15.738 21.9213 16.8593 21.9213 19.102C 21.9213 20.0824 22.2501 20.8487 22.9077 21.401C 23.5653 21.9532 24.41 22.2293 25.4417 22.2293Z"/>
<path id="path28_fill" d="M 48.9616 19.7612C 48.9616 18.916 48.6385 18.2624 47.9923 17.8003C 47.3573 17.327 46.2406 16.9213 44.642 16.5832C 43.0547 16.2451 41.7906 15.8394 40.8495 15.3661C 39.9199 14.8928 39.2283 14.3293 38.7747 13.6756C 38.3326 13.022 38.1115 12.2444 38.1115 11.3428C 38.1115 9.84399 38.7464 8.57616 40.0162 7.53936C 41.2974 6.50255 42.93 5.98415 44.9141 5.98415C 47.0002 5.98415 48.6895 6.51946 49.982 7.59007C 51.2858 8.66068 51.9378 10.0299 51.9378 11.6978L 48.7746 11.6978C 48.7746 10.8413 48.4061 10.1032 47.6691 9.48336C 46.9435 8.86353 46.0252 8.55362 44.9141 8.55362C 43.769 8.55362 42.8733 8.80155 42.2271 9.29741C 41.5808 9.79327 41.2577 10.4413 41.2577 11.2414C 41.2577 11.9965 41.5581 12.5656 42.159 12.9488C 42.7599 13.3319 43.8427 13.6982 45.4073 14.0475C 46.9832 14.3969 48.2587 14.8139 49.2337 15.2985C 50.2088 15.7831 50.9287 16.3691 51.3936 17.0565C 51.8697 17.7327 52.1078 18.561 52.1078 19.5415C 52.1078 21.1756 51.4502 22.4885 50.1351 23.4802C 48.8199 24.4606 47.1136 24.9509 45.0161 24.9509C 43.5422 24.9509 42.2384 24.6917 41.1046 24.1733C 39.9709 23.6549 39.0809 22.9336 38.4346 22.0095C 37.7997 21.0741 37.4823 20.0655 37.4823 18.9836L 40.6285 18.9836C 40.6851 20.0317 41.1046 20.8656 41.8869 21.4855C 42.6806 22.094 43.7236 22.3983 45.0161 22.3983C 46.2066 22.3983 47.1589 22.1616 47.8732 21.6883C 48.5988 21.2037 48.9616 20.5614 48.9616 19.7612Z"/>
<path id="path29_fill" d="M 62.2267 20.0317L 66.5123 6.32224L 69.8796 6.32224L 62.4818 27.4358C 61.3367 30.4786 59.517 32 57.0227 32L 56.4275 31.9493L 55.254 31.7295L 55.254 29.1939L 56.1043 29.2615C 57.1701 29.2615 57.9977 29.0474 58.5873 28.6191C 59.1882 28.1909 59.6814 27.4076 60.0668 26.2694L 60.7641 24.4099L 54.1996 6.32224L 57.6349 6.32224L 62.2267 20.0317Z"/>
<path id="path30_fill" d="M 0 0L 379.524 0L 379.524 437.352L 0 437.352L 0 0Z"/>
<path id="path31_stroke_2x" d="M 0 0L 0 -3.21941L -3.21941 -3.21941L -3.21941 0L 0 0ZM 379.524 0L 382.743 0L 382.743 -3.21941L 379.524 -3.21941L 379.524 0ZM 379.524 437.352L 379.524 440.572L 382.743 440.572L 382.743 437.352L 379.524 437.352ZM 0 437.352L -3.21941 437.352L -3.21941 440.572L 0 440.572L 0 437.352ZM 0 3.21941L 379.524 3.21941L 379.524 -3.21941L 0 -3.21941L 0 3.21941ZM 376.305 0L 376.305 437.352L 382.743 437.352L 382.743 0L 376.305 0ZM 379.524 434.133L 0 434.133L 0 440.572L 379.524 440.572L 379.524 434.133ZM 3.21941 437.352L 3.21941 0L -3.21941 0L -3.21941 437.352L 3.21941 437.352Z"/>
</defs>
</svg>
